# xmcd
#
# Track frame offsets: 
#        150
#        11150
#        29268
#        46605
#        81937
#        106301
#        151354
#        183238
#        195684
#        205397
#        218465
#        232860
#
# Disc length: 3329 seconds
#
# Revision: 0
# Processed by: cddbd v1.5.2PL0 Copyright (c) Steve Scherf et al.
# Submitted via: ExactAudioCopyFreeDBPlugin 1.0
#
DISCID=900cff0c
DTITLE=Nine Below Zero - Live In Gifhorn [CD 2)
DYEAR=2016
DGENRE=Blues
TTITLE0=Tore Down
TTITLE1=Can't Do My Homework Anymore
TTITLE2=I've Got My Mojo Working
TTITLE3=Stormy Monday
TTITLE4=Riding On The L and N
TTITLE5=It's Never Too Late
TTITLE6=Why Don't You Try Me Tonight
TTITLE7=Albatros
TTITLE8=Pack, Fair and Square
TTITLE9=Wooly Bully
TTITLE10=20 Yard Behind
TTITLE11=A Little Understanding
EXTD=
EXTT0=
EXTT1=
EXTT2=
EXTT3=
EXTT4=
EXTT5=
EXTT6=
EXTT7=
EXTT8=
EXTT9=
EXTT10=
EXTT11=
PLAYORDER=
